<svg xmlns="http://www.w3.org/2000/svg" xmlns:xlink="http://www.w3.org/1999/xlink">
  <linearGradient id="gradient" x1="136.48" y1="25.35" x2="237.62" y2="25.35" gradientUnits="userSpaceOnUse">
    <stop class="stop-1" offset="0" stop-color="#ff8700"/>\
    <stop class="stop-2" offset="1" stop-color="#ff500f"/>
  </linearGradient>
  <symbol id="logo" viewBox="0 0 237.49 49.74">
    <path class="cls-1" d="M8.67,42.41q0,2.08,0,3.4t.1,2.08q.07.83.14,1.25-4.31,0-6.56-1.81T.13,41.44L.2,16.78a20.09,20.09,0,0,1,1-6.46A15.31,15.31,0,0,1,4.22,5,13.6,13.6,0,0,1,8.95,1.46,14.9,14.9,0,0,1,15.27.18a8.21,8.21,0,0,1,3.54.69A5,5,0,0,1,21.31,3a4.94,4.94,0,0,1,.56,2.22,5.05,5.05,0,0,1-.21,1.46l-.14.42-.35-.14a15.28,15.28,0,0,0-2.26-.59A15.58,15.58,0,0,0,16,6.08a8.72,8.72,0,0,0-1.39.14,6.46,6.46,0,0,0-1.81.63A7.09,7.09,0,0,0,11,8.2,7.35,7.35,0,0,0,9.5,10.53a10.79,10.79,0,0,0-.66,2.29,16.51,16.51,0,0,0-.24,3v.76H18a7.07,7.07,0,0,1-1.74,5,6.39,6.39,0,0,1-4.93,1.88H8.6Z" transform="translate(-0.13 -0.18)"/>
    <path class="cls-1" d="M22.56,32.41a18.34,18.34,0,0,1,1.35-7.61,11.61,11.61,0,0,1,8.34-6.88,24.58,24.58,0,0,1,5.31-.59H41A6.82,6.82,0,0,1,41.11,20a4,4,0,0,1-.94,2,3.78,3.78,0,0,1-2.6,1.18,11.77,11.77,0,0,0-2.33.52,5,5,0,0,0-2,1.32,7.1,7.1,0,0,0-1.49,2.67,14.86,14.86,0,0,0-.59,4.65V42.48q0,2.08,0,3.37t.1,2q.07.83.14,1.25a10.49,10.49,0,0,1-6.53-1.77q-2.29-1.77-2.29-5.94Z" transform="translate(-0.13 -0.18)"/>
    <path class="cls-1" d="M68.89,21.5a16.09,16.09,0,0,1,3.37,5.24,17.25,17.25,0,0,1,1.22,6.5,18.68,18.68,0,0,1-1.11,6.5A15.87,15.87,0,0,1,69.24,45a14.43,14.43,0,0,1-4.9,3.61,15.27,15.27,0,0,1-6.43,1.32,14,14,0,0,1-6-1.32,16.18,16.18,0,0,1-5-3.61,16.66,16.66,0,0,1-3.3-5.24,17.22,17.22,0,0,1-1.22-6.5,19.2,19.2,0,0,1,1.08-6.5A15.41,15.41,0,0,1,46.6,21.5a14.43,14.43,0,0,1,4.9-3.61,15.27,15.27,0,0,1,6.43-1.32A14.15,14.15,0,0,1,64,17.89,15.4,15.4,0,0,1,68.89,21.5Zm-11,22.44A6.67,6.67,0,0,0,60,43.52a5.84,5.84,0,0,0,2.33-1.6,9.48,9.48,0,0,0,1.88-3.26A16,16,0,0,0,65,33.24a16.34,16.34,0,0,0-.76-5.45,9.08,9.08,0,0,0-1.88-3.26A6,6,0,0,0,60,23a5.59,5.59,0,0,0-4.24,0,6,6,0,0,0-2.33,1.56,9,9,0,0,0-1.88,3.26,16.32,16.32,0,0,0-.76,5.45,16,16,0,0,0,.76,5.42,9.44,9.44,0,0,0,1.88,3.26,5.83,5.83,0,0,0,2.33,1.6A6.66,6.66,0,0,0,57.92,43.94Z" transform="translate(-0.13 -0.18)"/>
    <path class="cls-1" d="M78.76,31.65A18.34,18.34,0,0,1,80.11,24a12.21,12.21,0,0,1,3.47-4.62,11.75,11.75,0,0,1,4.79-2.26,24.7,24.7,0,0,1,10.73,0,12.32,12.32,0,0,1,4.9,2.26A11.9,11.9,0,0,1,107.55,24a18.35,18.35,0,0,1,1.35,7.61l.28,17.5a10.34,10.34,0,0,1-6.53-1.81q-2.29-1.81-2.29-5.9l.07-9.79A15.23,15.23,0,0,0,99.84,27a7.24,7.24,0,0,0-1.56-2.78,4.92,4.92,0,0,0-2.15-1.35,8.34,8.34,0,0,0-2.36-.35,8,8,0,0,0-2.33.35,4.71,4.71,0,0,0-2.08,1.35A7.5,7.5,0,0,0,87.82,27a15.2,15.2,0,0,0-.59,4.69V42.41q.07,2.08.1,3.4t.1,2.08q.07.83.14,1.25-4.31,0-6.6-1.81t-2.29-5.9Z" transform="translate(-0.13 -0.18)"/>
    <path class="cls-1" d="M133.84,43a2,2,0,0,0,.07.49,4.36,4.36,0,0,1,.14,1,4.6,4.6,0,0,1-.56,2.26,5.11,5.11,0,0,1-1.53,1.7,7.92,7.92,0,0,1-4.72,1.39,10.53,10.53,0,0,1-4.52-1,12.17,12.17,0,0,1-4-3.12,15.66,15.66,0,0,1-2.88-5.18,22.07,22.07,0,0,1-1.08-7.26l.07-20.07q0-4.17,2.22-6t6.46-1.81q-.07.49-.14,1.32t-.1,2q0,1.29,0,3.37l.07,4.38h9.31a7.07,7.07,0,0,1-1.74,5,6.39,6.39,0,0,1-4.93,1.88h-2.64l-.07,9.86a19.58,19.58,0,0,0,.52,4.9,9.71,9.71,0,0,0,1.42,3.23A5.92,5.92,0,0,0,130,43.8a9.27,9.27,0,0,0,2.5-.35Z" transform="translate(-0.13 -0.18)"/>
    <path class="cls-2" fill="url(#gradient)" d="M152.11,36.58A24.37,24.37,0,0,0,156,36.2a15.45,15.45,0,0,0,4.28-1.39A10.59,10.59,0,0,0,163.78,32a7,7,0,0,0,1.46-4.62,9.14,9.14,0,0,0-1.32-5A10.75,10.75,0,0,0,160.58,19a14.85,14.85,0,0,0-4.34-1.88,17.61,17.61,0,0,0-4.27-.59,15.31,15.31,0,0,0-6.43,1.32,14.86,14.86,0,0,0-4.89,3.54,15.93,15.93,0,0,0-3.09,5.32,19.13,19.13,0,0,0-1.08,6.49,17.08,17.08,0,0,0,1.22,6.5A16.67,16.67,0,0,0,141,45a15.72,15.72,0,0,0,5,3.58,14.26,14.26,0,0,0,6,1.28,16.46,16.46,0,0,0,6.84-1.42,16.63,16.63,0,0,0,5.46-3.92l.2-.21-.2-.21a5.15,5.15,0,0,0-1.6-1.67,3.2,3.2,0,0,0-1.74-.48,5.32,5.32,0,0,0-1.84.34c-.62.24-1.28.47-2,.7a20.49,20.49,0,0,1-2.36.62,13.17,13.17,0,0,1-2.78.28,6.57,6.57,0,0,1-1.88-.31A5.74,5.74,0,0,1,148,42.34a8.46,8.46,0,0,1-1.87-2.46A11.41,11.41,0,0,1,145,35.81c.47.1,1.33.25,2.61.45A27.83,27.83,0,0,0,152.11,36.58Zm-5.84-10.21A8,8,0,0,1,148.12,24a6,6,0,0,1,2-1.14,8.9,8.9,0,0,1,1.81-.38,6,6,0,0,1,4.34,1.11,3.39,3.39,0,0,1,1.36,3A3.85,3.85,0,0,1,156,29.84,8.29,8.29,0,0,1,152.35,31a16.57,16.57,0,0,1-4.1-.1,23.31,23.31,0,0,1-3.16-.66A11.76,11.76,0,0,1,146.27,26.37ZM231,2.64q-2.3,1.78-2.29,5.94l.07,9.8a14.11,14.11,0,0,0-7.09-1.81,15.23,15.23,0,0,0-6.42,1.32,14.79,14.79,0,0,0-4.9,3.54,15.93,15.93,0,0,0-3.09,5.32,19.13,19.13,0,0,0-1.08,6.49,17.08,17.08,0,0,0,1.22,6.5,16,16,0,0,0,8.26,8.79,14.13,14.13,0,0,0,6,1.31,15.46,15.46,0,0,0,6.43-1.31A14.88,14.88,0,0,0,233,45a16.6,16.6,0,0,0,3.13-5.31,18.53,18.53,0,0,0,1.11-6.43l.07-25.63c0-1.39,0-2.52,0-3.4s.06-1.58.11-2.09.09-1,.14-1.25Q233.32.87,231,2.64Zm-3,36a9,9,0,0,1-1.87,3.26,5.83,5.83,0,0,1-2.33,1.56,5.56,5.56,0,0,1-4.24,0,5.81,5.81,0,0,1-2.32-1.56,8.9,8.9,0,0,1-1.88-3.26,16.38,16.38,0,0,1-.76-5.46,16.31,16.31,0,0,1,.76-5.45,8.9,8.9,0,0,1,1.88-3.26,5.94,5.94,0,0,1,2.32-1.57,5.69,5.69,0,0,1,4.24,0,6,6,0,0,1,2.33,1.57A9,9,0,0,1,228,27.72a16.29,16.29,0,0,1,.77,5.45A16.35,16.35,0,0,1,228,38.63Zm-27.3-7,.28,17.5a10.32,10.32,0,0,1-6.53-1.81q-2.29-1.8-2.29-5.9l.07-9.79a15.31,15.31,0,0,0-.59-4.69,7.3,7.3,0,0,0-1.57-2.78A4.94,4.94,0,0,0,188,22.82a8.37,8.37,0,0,0-2.36-.34,8.06,8.06,0,0,0-2.33.34,4.79,4.79,0,0,0-2.08,1.36A7.4,7.4,0,0,0,179.65,27a15.31,15.31,0,0,0-.59,4.69V42.41c0,1.39.08,2.53.1,3.41s.06,1.57.11,2.08a12.49,12.49,0,0,0,.14,1.25q-4.3,0-6.6-1.81t-2.29-5.9l.07-9.79A18.39,18.39,0,0,1,171.94,24a12.19,12.19,0,0,1,3.47-4.62,11.88,11.88,0,0,1,4.8-2.26,25,25,0,0,1,5.38-.59,25.34,25.34,0,0,1,5.35.59,12.48,12.48,0,0,1,4.9,2.26A11.92,11.92,0,0,1,199.38,24,18.39,18.39,0,0,1,200.73,31.65Z" transform="translate(-0.13 -0.18)"/>
  </symbol>
  <symbol id="rocket" viewBox="0 0 410 628">
    <path d="M241.9,435.4l-33.11-20-18.16,34.15c-30,55.05-9.83,125.36,43.68,158.1l33.11,20,18.16-34.15C314.68,537.93,295.91,467.23,241.9,435.4Z" fill="#f8b64c" />
    <path d="M240.68,458.73l-23.12-14.31-12.49,24.15c-21.25,39.6-7.09,90.88,31.48,113.95l23.12,14.31,12.49-24.15C293.41,533.08,279.24,481.8,240.68,458.73Z" fill="#ffd15c" />
    <path d="M379.78,510c.09-10.76-2.14-21.64-4.9-31.61a142.76,142.76,0,0,0-39.62-65.71C300,379.48,248.4,364.61,198.55,378.38S112,431.41,98.82,478c-6.4,24-7.35,51.09-.27,76.73a149.46,149.46,0,0,0,12,29.64A205.19,205.19,0,0,1,7.25,457.29C-5.34,411.71-1.6,367,14.08,326.63A204,204,0,0,1,150,205.52c64.1-17.71,130.24-3,178.84,34.15C363,266.25,390.12,303.23,401.8,348.3,419,404.88,408.4,463.75,379.78,510Z" fill="#ff7058" />
    <path d="M301.1,466.57c62.69-169.86-6-360.15-174-449.42L93.88-.5,74.42,31.71c-98.35,162.85-59.6,361.4,81.39,475Z" fill="#f2f2f2" />
    <path d="M96.26,446.5c17.57,22,37.59,41.74,59.56,60.2L299.67,467c10.28-26.6,16.41-54.36,20.21-82.24Z" fill="#40596b" />
    <path d="M227,93a402.1,402.1,0,0,0-99.91-75.88L93.88-.5,74.42,31.71A402.1,402.1,0,0,0,27.62,148.12Z" fill="#40596b" />
    <path d="M155.81,506.7c8.06,7,17.54,13.55,26.11,19.61l105.4-29.12c4.76-10.51,9-20.12,12.34-30.24Z" fill="#f2f2f2" />
    <circle cx="158.93" cy="236.16" r="80.46" transform="translate(-124.89 257.91) rotate(-60.44)" fill="#40596b" />
    <circle cx="158.93" cy="236.16" r="56.42" transform="translate(-124.89 257.91) rotate(-60.44)" fill="#84dbff" />
    <path d="M141.7,194.79a50.29,50.29,0,0,1,29.61,96.07c1.42-.39,2.33.12,2.85-.79a56.15,56.15,0,1,0-69.08-39.17c.39,1.42,1.3,1.94.79,2.85C101.11,228.23,116.06,201.87,141.7,194.79Z" fill="#54c0eb" />
  </symbol>
  <symbol id="computer" viewBox="0 0 531 481">
    <path d="M203.06,424.94c-.9,7.41-5,15.13-11.13,19.32l-10.15,6.89H349.37l-10.15-6.89c-6.17-4.19-10.23-11.91-11.13-19.32l-4.93-41.73H208Z" fill="#ccc" />
    <path d="M235.82,430l4.93-46.76H208l-4.93,41.73c-.9,7.41-5,15.13-11.13,19.32l-10.15,6.89h43.49C231.11,446.36,235,438,235.82,430Z" fill="#bababa" />
    <path d="M500.81,384.28H30.34A30.28,30.28,0,0,1,.15,354.09V30.68A30.28,30.28,0,0,1,30.34.49H500.81A30.28,30.28,0,0,1,531,30.68V354.09A30.28,30.28,0,0,1,500.81,384.28Z" fill="#efefef" />
    <path d="M30.67,354.09V30.68A30.28,30.28,0,0,1,60.86.49H30.34A30.28,30.28,0,0,0,.15,30.68V354.09a30.28,30.28,0,0,0,30.19,30.19H60.86A30.28,30.28,0,0,1,30.67,354.09Z" fill="#ddd" />
    <path d="M500.81.49H30.34A30.28,30.28,0,0,0,.15,30.68V323.31H531V30.68A30.28,30.28,0,0,0,500.81.49Z" fill="#666" />
    <path d="M.15,30.68V323.31H30.67V30.68A30.28,30.28,0,0,1,60.86.49C29.39.54,25.18-.57,16.65,3.8A30.27,30.27,0,0,0,.15,30.68Z" fill="#535454" />
    <path d="M495.33,292.83H35.82a5.15,5.15,0,0,1-5.15-5.15V35.95a5.15,5.15,0,0,1,5.15-5.15H495.33a5.15,5.15,0,0,1,5.15,5.15V287.68A5.15,5.15,0,0,1,495.33,292.83Z" fill="#a4d9f4" />
    <path d="M62.71,287.68V35.95a5.15,5.15,0,0,1,5.15-5.15h-32a5.15,5.15,0,0,0-5.15,5.15V287.68a5.15,5.15,0,0,0,5.15,5.15h32A5.15,5.15,0,0,1,62.71,287.68Z" fill="#7cc9e8" />
    <path d="M364.36,450.08H166.79a15.28,15.28,0,0,0-15.24,15.24h0a15.28,15.28,0,0,0,15.24,15.24H364.36a15.28,15.28,0,0,0,15.24-15.24h0A15.28,15.28,0,0,0,364.36,450.08Z" fill="#efefef" />
    <path d="M211.27,465.31h0a15.28,15.28,0,0,1,15.24-15.24H166.79a15.28,15.28,0,0,0-15.24,15.24h0a15.28,15.28,0,0,0,15.24,15.24H226.5A15.28,15.28,0,0,1,211.27,465.31Z" fill="#ddd" />
    <circle cx="265.57" cy="353.76" r="8.07" fill="#ccc" />
    <path d="M30.67,35.95V61.1H500.48V35.95a5.15,5.15,0,0,0-5.15-5.15H35.82A5.15,5.15,0,0,0,30.67,35.95Z" fill="#70b5e8" />
    <path d="M30.67,61.1h32V35.95a5.15,5.15,0,0,1,5.15-5.15h-32a5.14,5.14,0,0,0-5.07,4.35C30.59,36.17,30.71,34.25,30.67,61.1Z" fill="#52a5d8" />
    <path d="M151.38,269.26H129.94a3.58,3.58,0,0,1-3.57-3.57V244.25a3.58,3.58,0,0,1,3.57-3.57h21.44a3.58,3.58,0,0,1,3.57,3.57v21.44A3.58,3.58,0,0,1,151.38,269.26Z" fill="#52a5d8" />
    <path d="M251.31,269.26H229.87a3.58,3.58,0,0,1-3.57-3.57V244.25a3.58,3.58,0,0,1,3.57-3.57h21.44a3.58,3.58,0,0,1,3.57,3.57v21.44A3.58,3.58,0,0,1,251.31,269.26Z" fill="#898989" />
    <path d="M351.24,269.26H329.8a3.58,3.58,0,0,1-3.57-3.57V244.25a3.58,3.58,0,0,1,3.57-3.57h21.44a3.58,3.58,0,0,1,3.57,3.57v21.44A3.58,3.58,0,0,1,351.24,269.26Z" fill="#52a5d8" />
    <path d="M201.34,269.26H179.91a3.58,3.58,0,0,1-3.57-3.57V244.25a3.58,3.58,0,0,1,3.57-3.57h21.44a3.58,3.58,0,0,1,3.57,3.57v21.44A3.58,3.58,0,0,1,201.34,269.26Z" fill="#f94a46" />
    <path d="M301.28,269.26H279.84a3.58,3.58,0,0,1-3.57-3.57V244.25a3.58,3.58,0,0,1,3.57-3.57h21.44a3.58,3.58,0,0,1,3.57,3.57v21.44A3.58,3.58,0,0,1,301.28,269.26Z" fill="#ffb70d" />
    <path d="M401.21,269.26H379.77a3.58,3.58,0,0,1-3.57-3.57V244.25a3.58,3.58,0,0,1,3.57-3.57h21.44a3.58,3.58,0,0,1,3.57,3.57v21.44A3.58,3.58,0,0,1,401.21,269.26Z" fill="#92b620" />
  </symbol>
  <symbol id="phone" viewBox="0 0 161 291">
    <path d="M143.67,291H17.3A17.09,17.09,0,0,1,.21,273.92V17.08A17.09,17.09,0,0,1,17.3,0H143.67a17.08,17.08,0,0,1,17.08,17.08V273.91A17.08,17.08,0,0,1,143.67,291Z" fill="#424a60" />
    <rect x="0.21" y="30.1" width="160.55" height="200.69" fill="#a4e869" />
    <circle cx="80.48" cy="260.9" r="15.05" fill="#262b35" />
    <path d="M80.48,20.07H60.41a5,5,0,0,1,0-10H80.48a5,5,0,1,1,0,10Z" fill="#262b35" />
    <path d="M100.55,20.07h-5a5,5,0,0,1,0-10h5a5,5,0,0,1,0,10Z" fill="#262b35" />
  </symbol>
  <symbol id="sun" viewBox="0 0 482 482">
    <circle cx="240.94" cy="240.94" r="138.54" fill="#fcd462" />
    <path d="M306.6,118.66c6,19.27,10.24,39.76,10.84,60.84,3.61,83.73-53,157.82-126.49,190.34A138.53,138.53,0,0,0,306.6,118.66Z" fill="#f6c358" />
    <path d="M240.94,0a20.31,20.31,0,0,0-20.48,20.48V54.21a20.48,20.48,0,1,0,41,0V20.48A20.31,20.31,0,0,0,240.94,0Z" fill="#f6c358" />
    <path d="M240.94,407.19a20.31,20.31,0,0,0-20.48,20.48V461.4a20.48,20.48,0,1,0,41,0V427.67A20.31,20.31,0,0,0,240.94,407.19Z" fill="#f6c358" />
    <path d="M481.88,240.94a20.31,20.31,0,0,0-20.48-20.48H427.67a20.48,20.48,0,1,0,0,41H461.4A20.31,20.31,0,0,0,481.88,240.94Z" fill="#f6c358" />
    <path d="M74.69,240.94a20.31,20.31,0,0,0-20.48-20.48H20.48a20.48,20.48,0,1,0,0,41H54.21A20.31,20.31,0,0,0,74.69,240.94Z" fill="#f6c358" />
    <path d="M411.41,70.47a20.73,20.73,0,0,0-28.91,0L358.4,94.57a20.44,20.44,0,1,0,28.91,28.91l24.09-24.09A20.73,20.73,0,0,0,411.41,70.47Z" fill="#f6c358" />
    <path d="M123.48,358.4a20.73,20.73,0,0,0-28.91,0L70.47,382.49a20.44,20.44,0,0,0,28.91,28.91l24.09-24.09C131.31,379.48,131.31,366.83,123.48,358.4Z" fill="#f6c358" />
    <path d="M411.41,411.41a20.73,20.73,0,0,0,0-28.91L387.31,358.4a20.44,20.44,0,1,0-28.91,28.91l24.09,24.09A20.73,20.73,0,0,0,411.41,411.41Z" fill="#f6c358" />
    <path d="M123.48,123.48a20.73,20.73,0,0,0,0-28.91L99.39,70.47A20.44,20.44,0,0,0,70.47,99.39l24.09,24.09C102.4,131.31,115,131.31,123.48,123.48Z" fill="#f6c358" />
  </symbol>
  <symbol id="cloud1" viewBox="0 0 384 250">
    <path d="M62.51,92.17c0-.52,0-1,0-1.57A90.82,90.82,0,0,1,241.87,70.42a59.31,59.31,0,0,1,88.24,51.8c0,1.34-.06,2.66-.15,4A63.9,63.9,0,0,1,307.73,250H79.86A79.87,79.87,0,0,1,62.51,92.17Z" fill="#a4d9f4" />
  </symbol>
  <symbol id="cloud2" viewBox="0 0 480 352">
    <path d="M459,196.12a93.86,93.86,0,0,0-53.25-33.62A61.94,61.94,0,0,0,416,128a61.68,61.68,0,0,0-18.75-45.25A61.66,61.66,0,0,0,352,64q-24,0-41.5,15.5A127.84,127.84,0,0,0,263.63,22,124,124,0,0,0,192,0q-53,0-90.5,37.5T64,128q0,3.75.5,10.75a110.23,110.23,0,0,0-46.75,40.88A108.69,108.69,0,0,0,0,240q0,46.25,32.87,79.12T112,352H384q39.74,0,67.87-28.13T480,256A92.92,92.92,0,0,0,459,196.12Z" fill="#54c0eb" />
  </symbol>
  <symbol id="cloud3" viewBox="0 0 480 317">
    <path d="M384.36,118.88A149.11,149.11,0,0,0,237.75,0C180.29,0,130.76,31.7,107,79.25,45.57,87.17,0,136.71,0,198.13,0,263.51,53.49,317,118.88,317H376.44c55.48,0,99.06-43.59,99.06-99.06C475.5,166.43,433.89,122.84,384.36,118.88Z" fill="#38b0f9" />
  </symbol>
  <symbol id="cloud4" viewBox="0 0 403 310">
    <path d="M352.57,126.7c-1-63-53.25-113.15-116.22-112.13A113.91,113.91,0,0,0,157,48.88C138.55,7.41,89.91-11,49,7.41S-11,74.48,7.48,115.44A80.6,80.6,0,0,0,39.74,152.3,89.86,89.86,0,0,0,30,278.77,88.14,88.14,0,0,0,97.59,310H304.44c53.76.51,98.3-43,98.3-97.28C403.26,176.88,383.8,144.11,352.57,126.7Z" fill="#84dbff" />
  </symbol>
  <symbol id="cloud5" viewBox="0 0 512 313">
    <path d="M429.38,313a82.61,82.61,0,0,0,18.69-163.09A151.33,151.33,0,0,0,164.25,78.2,64.49,64.49,0,0,0,74.75,129,92.92,92.92,0,0,0,92.92,313Z" fill="#269af2" />
  </symbol>
  <symbol id="cloud6" viewBox="0 0 381 276">
    <path d="M80.72,275.91l0,.09h2c1,0,2,.16,3,.16s2-.11,3-.16H280v-.05c1.4.05,2.76.21,4.17.21,53.66,0,97.16-43.85,97.16-97.95s-43.5-98-97.16-98c-2,0-3.91.18-5.87.3C270,35,230.43.48,182.83.48c-53.66,0-97.16,43.85-97.16,98,0,1.42.15,2.82.21,4.22h-.21c-47.52,0-86.05,38.84-86.05,86.75C-.38,235.63,35.52,273.31,80.72,275.91Z" fill="#29adef" />
  </symbol>
</svg>